<svg xmlns="http://www.w3.org/2000/svg" width="112.91" height="40" viewBox="0 0 112.91 40"><path
        d="M15,1.26A8.09,8.09,0,0,1,17.9,4.7a11.85,11.85,0,0,1,1,5.11,11.57,11.57,0,0,1-1,5.06A7.94,7.94,0,0,1,15,18.22a7.86,7.86,0,0,1-4.3,1.18,7.35,7.35,0,0,1-3.53-.84,5.89,5.89,0,0,1-2.4-2.32V24a2,2,0,0,1-.65,1.56,2.49,2.49,0,0,1-1.72.57,2.46,2.46,0,0,1-1.72-.61A2.07,2.07,0,0,1,0,23.92V2.35A2.15,2.15,0,0,1,.63.72,2.34,2.34,0,0,1,2.32.11,2.41,2.41,0,0,1,4,.72a2.13,2.13,0,0,1,.64,1.63V3.3A5.86,5.86,0,0,1,7.1.89,7.39,7.39,0,0,1,10.7,0,7.7,7.7,0,0,1,15,1.26Zm-2,12.91a6.71,6.71,0,0,0,1.26-4.36,7,7,0,0,0-1.26-4.48,4.67,4.67,0,0,0-6.6-.44,5.18,5.18,0,0,0-.41.4A7,7,0,0,0,4.69,9.74a6.92,6.92,0,0,0,1.23,4.41,4.74,4.74,0,0,0,6.7.33h0a3,3,0,0,0,.31-.31ZM36.68,2a8,8,0,0,1,1.88,5.83v9.28a2.12,2.12,0,0,1-.6,1.62,2.35,2.35,0,0,1-1.68.59,2.22,2.22,0,0,1-1.61-.61,2.09,2.09,0,0,1-.63-1.6v-.84a5,5,0,0,1-2,2.32,6.18,6.18,0,0,1-3.22.84,7.47,7.47,0,0,1-3.38-.77A6,6,0,0,1,23,16.53a5.2,5.2,0,0,1-.87-3,4.67,4.67,0,0,1,1-3.23,6.33,6.33,0,0,1,3.4-1.72,30.79,30.79,0,0,1,6.5-.53h1V7.21a3.84,3.84,0,0,0-.8-2.71,3.35,3.35,0,0,0-2.58-.86A8.16,8.16,0,0,0,28.4,4q-1.14.33-2.7.93a3.86,3.86,0,0,1-1.44.5,1.44,1.44,0,0,1-1.13-.5A1.88,1.88,0,0,1,22.7,3.6,2,2,0,0,1,23,2.48a3.09,3.09,0,0,1,1.08-.89A12.48,12.48,0,0,1,27.28.44,16.43,16.43,0,0,1,30.91,0,7.68,7.68,0,0,1,36.68,2ZM32.84,14.69A4.6,4.6,0,0,0,34,11.4v-.8h-.68a25,25,0,0,0-4,.23,3.73,3.73,0,0,0-2,.8,2,2,0,0,0-.61,1.56,2.59,2.59,0,0,0,.86,2,3,3,0,0,0,2.11.78,4.06,4.06,0,0,0,3.09-1.27ZM57.18.48A2,2,0,0,1,58.3.15a2.37,2.37,0,0,1,1.57.59,1.84,1.84,0,0,1,.7,1.47,1.9,1.9,0,0,1-.22.87L50,24.83a2.13,2.13,0,0,1-2,1.28,2.29,2.29,0,0,1-1.54-.55,1.73,1.73,0,0,1-.67-1.38,2.55,2.55,0,0,1,.23-.95l2.59-5.44L41.49,3.07a1.87,1.87,0,0,1-.19-.87A1.84,1.84,0,0,1,42,.72a2.56,2.56,0,0,1,1.7-.6,2.16,2.16,0,0,1,1.18.32,2.19,2.19,0,0,1,.83,1l5.33,11.75L56.36,1.48A2.17,2.17,0,0,1,57.18.48Zm33,1.37a8.66,8.66,0,0,1,1.61,5.83V17a2.13,2.13,0,0,1-.67,1.69,2.53,2.53,0,0,1-1.73.59,2.48,2.48,0,0,1-1.69-.59A2.15,2.15,0,0,1,87,17V7.68a4.78,4.78,0,0,0-.74-3A2.78,2.78,0,0,0,84,3.8a3.71,3.71,0,0,0-3,1.27,5.15,5.15,0,0,0-1.1,3.48V17a2.16,2.16,0,0,1-.67,1.69,2.48,2.48,0,0,1-1.69.59,2.55,2.55,0,0,1-1.71-.59A2.12,2.12,0,0,1,75.18,17V7.68a4.64,4.64,0,0,0-.74-3,2.75,2.75,0,0,0-2.26-.89,3.66,3.66,0,0,0-3,1.27,5.18,5.18,0,0,0-1.08,3.48V17a2.09,2.09,0,0,1-.69,1.69,2.55,2.55,0,0,1-1.71.59,2.48,2.48,0,0,1-1.69-.59A2.13,2.13,0,0,1,63.39,17V2.32A2,2,0,0,1,64.08.68,2.58,2.58,0,0,1,65.79.11,2.42,2.42,0,0,1,67.4.66,2,2,0,0,1,68,2.24v.91A6,6,0,0,1,70.37.83,6.9,6.9,0,0,1,73.74,0a5.44,5.44,0,0,1,5.58,3.5A6.34,6.34,0,0,1,81.8,1,7.19,7.19,0,0,1,85.48,0,5.94,5.94,0,0,1,90.15,1.85Zm22.2,12.64a2.09,2.09,0,0,1,.4,1.33,2.32,2.32,0,0,1-1.41,2A13.25,13.25,0,0,1,108.41,19a12.11,12.11,0,0,1-3.12.44,9.72,9.72,0,0,1-7.11-2.59,9.49,9.49,0,0,1-2.62-7.07A10.94,10.94,0,0,1,96.7,4.68a8.29,8.29,0,0,1,3.22-3.42A9,9,0,0,1,104.62,0,8.36,8.36,0,0,1,109,1.14a7.5,7.5,0,0,1,2.89,3.12,10.41,10.41,0,0,1,1,4.75c0,1.09-.49,1.64-1.45,1.64H100.24a6,6,0,0,0,1.48,3.86,5,5,0,0,0,3.65,1.24,7.13,7.13,0,0,0,2.15-.31,20.14,20.14,0,0,0,2.11-.84,4.2,4.2,0,0,1,1.67-.6A1.26,1.26,0,0,1,112.35,14.49ZM101.63,4.6a5.67,5.67,0,0,0-1.39,3.5h8.59a5.47,5.47,0,0,0-1.14-3.52,3.78,3.78,0,0,0-3-1.2,4.11,4.11,0,0,0-3.1,1.22ZM56.45,40c-9.84,0-19.45-4.75-19.86-5a1.9,1.9,0,0,1,1.7-3.4h0c.09.05,9.24,4.55,18.17,4.55s18.07-4.5,18.17-4.55A1.9,1.9,0,1,1,76.49,35l-.17.08C75.91,35.25,66.3,40,56.45,40Z" fill="#ffffff" /></svg>